<svg width="787" height="484" viewBox="0 0 787 484" fill="none" xmlns="http://www.w3.org/2000/svg">
<path d="M563.361 380.416C568.097 380.416 571.969 381.504 574.977 383.68C578.049 385.792 580.321 388.736 581.792 392.512C583.264 396.224 584 400.48 584 405.28V455.2H566.529V404.32C566.529 402.464 566.273 400.704 565.761 399.04C565.313 397.312 564.481 395.936 563.265 394.912C562.113 393.824 560.481 393.28 558.369 393.28H552.705L551.841 398.368C551.841 399.392 551.873 400.512 551.937 401.728C552.065 402.88 552.417 403.872 552.993 404.704C553.633 405.536 554.657 405.952 556.065 405.952L553.185 416.224C549.089 416.288 545.793 415.808 543.297 414.784C540.801 413.696 538.945 412.256 537.729 410.464C536.577 408.672 535.905 406.656 535.713 404.416C535.585 402.112 535.777 399.776 536.289 397.408L540.129 380.416H563.361ZM593.24 436V391.648L592.184 380.416H609.56L610.712 391.648V436H593.24ZM625.911 436.96L618.423 380.416H634.935L639.927 422.752C644.599 422.432 648.407 421.6 651.351 420.256C654.359 418.848 656.663 417.056 658.263 414.88C659.863 412.704 660.951 410.24 661.527 407.488C662.167 404.672 662.487 401.728 662.487 398.656L662.295 380.416H679.767L679.863 397.696C679.927 406.4 678.103 413.76 674.391 419.776C670.743 425.792 664.951 430.272 657.015 433.216C649.079 436.16 638.711 437.408 625.911 436.96ZM636.663 414.496L632.535 403.84C635.223 403.52 637.175 402.752 638.391 401.536C639.607 400.32 640.375 398.528 640.695 396.16C641.015 393.792 641.143 390.752 641.079 387.04L640.983 380.416H657.495V386.656C657.495 391.072 656.919 395.136 655.767 398.848C654.679 402.56 652.631 405.76 649.623 408.448C646.615 411.072 642.295 413.088 636.663 414.496ZM685.918 436V423.136H698.494V397.792C698.494 395.744 698.142 394.432 697.438 393.856C696.734 393.216 695.742 392.832 694.462 392.704L687.55 391.84L689.662 379.168L703.774 380.896C707.742 381.344 710.75 383.072 712.798 386.08C714.91 389.088 715.966 392.832 715.966 397.312V436H685.918ZM724.865 415.84V406.912V391.648L723.809 380.416H741.185L742.337 391.648V406.912L742.241 412.96L724.865 415.84Z" fill="black"/>
<path d="M15.6456 437.44L14.6856 430.336C17.2456 430.08 19.1976 429.568 20.5416 428.8C21.8856 427.968 22.8136 426.816 23.3256 425.344C23.8376 423.808 24.0936 421.92 24.0936 419.68V382.048H50.0136C53.2136 382.048 56.0296 382.656 58.4616 383.872C60.8936 385.024 62.8136 386.912 64.2216 389.536C65.6296 392.16 66.3336 395.648 66.3336 400V436H56.0616V399.52C56.0616 395.936 55.2936 393.44 53.7576 392.032C52.2216 390.624 50.1096 389.92 47.4216 389.92H34.2696V418.432C34.2696 422.72 33.5976 426.208 32.2536 428.896C30.9736 431.52 28.9576 433.504 26.2056 434.848C23.5176 436.192 19.9976 437.056 15.6456 437.44ZM78.8294 436V393.28L77.6774 382.048H87.8534L89.1014 393.28V436H78.8294ZM98.2461 439.168L96.8061 431.104L116.198 427.456C119.654 426.752 122.47 425.728 124.646 424.384C126.822 422.976 128.486 421.12 129.638 418.816C130.854 416.512 131.718 413.696 132.23 410.368C132.742 406.976 133.03 402.944 133.094 398.272C133.158 393.6 133.19 388.192 133.19 382.048H143.366C143.366 388.704 143.238 394.656 142.982 399.904C142.726 405.152 142.15 409.792 141.254 413.824C140.358 417.792 138.95 421.216 137.03 424.096C135.11 426.976 132.454 429.376 129.062 431.296C125.734 433.216 121.478 434.656 116.294 435.616L98.2461 439.168ZM113.318 428.896L101.222 382.048H111.494L123.11 428.896H113.318ZM159.281 436.96L152.273 382.048H162.065L167.633 428.32C172.497 428 176.689 427.104 180.209 425.632C183.793 424.16 186.737 422.144 189.041 419.584C191.345 417.024 193.041 413.888 194.129 410.176C195.217 406.4 195.761 402.112 195.761 397.312L195.569 382.048H205.841L205.937 396.832C206.001 405.792 204.337 413.248 200.945 419.2C197.617 425.152 192.497 429.632 185.585 432.64C178.673 435.584 169.905 437.024 159.281 436.96ZM164.369 415.744L161.969 409.024C165.169 407.808 167.665 406.4 169.457 404.8C171.249 403.136 172.497 400.992 173.201 398.368C173.969 395.68 174.385 392.288 174.449 388.192V382.24H184.145V388C184.081 392.672 183.409 396.768 182.129 400.288C180.913 403.808 178.865 406.816 175.985 409.312C173.169 411.808 169.297 413.952 164.369 415.744ZM232.583 437.44L231.623 430.336C234.183 430.08 236.135 429.568 237.479 428.8C238.823 427.968 239.751 426.816 240.263 425.344C240.775 423.808 241.031 421.92 241.031 419.68V382.048H266.951C270.151 382.048 272.967 382.656 275.399 383.872C277.831 385.024 279.751 386.912 281.159 389.536C282.567 392.16 283.271 395.648 283.271 400V436H272.999V399.52C272.999 395.936 272.231 393.44 270.695 392.032C269.159 390.624 267.047 389.92 264.359 389.92H251.207V418.432C251.207 422.72 250.535 426.208 249.191 428.896C247.911 431.52 245.895 433.504 243.143 434.848C240.455 436.192 236.935 437.056 232.583 437.44ZM292.695 436V428.128H306.519C309.655 428.128 312.215 427.52 314.199 426.304C316.183 425.024 317.655 423.2 318.615 420.832C319.575 418.4 320.055 415.552 320.055 412.288V405.76C320.055 402.432 319.575 399.584 318.615 397.216C317.655 394.848 316.183 393.056 314.199 391.84C312.215 390.56 309.655 389.92 306.519 389.92H292.695V382.048H309.015C313.623 382.048 317.495 383.008 320.631 384.928C323.831 386.848 326.231 389.632 327.831 393.28C329.495 396.864 330.327 401.184 330.327 406.24V411.808C330.327 416.928 329.495 421.312 327.831 424.96C326.231 428.544 323.831 431.296 320.631 433.216C317.495 435.072 313.623 436 309.015 436H292.695ZM364.557 436V399.52C364.557 395.936 363.789 393.44 362.253 392.032C360.717 390.624 358.605 389.92 355.917 389.92H338.157V382.048H358.509C361.709 382.048 364.525 382.656 366.957 383.872C369.389 385.024 371.309 386.912 372.717 389.536C374.125 392.16 374.829 395.648 374.829 400V436H364.557ZM383.902 439.168L382.462 431.104L401.854 427.456C405.31 426.752 408.126 425.728 410.302 424.384C412.478 422.976 414.142 421.12 415.294 418.816C416.51 416.512 417.374 413.696 417.886 410.368C418.398 406.976 418.686 402.944 418.75 398.272C418.814 393.6 418.846 388.192 418.846 382.048H429.022C429.022 388.704 428.894 394.656 428.638 399.904C428.382 405.152 427.806 409.792 426.91 413.824C426.014 417.792 424.606 421.216 422.686 424.096C420.766 426.976 418.11 429.376 414.718 431.296C411.39 433.216 407.134 434.656 401.95 435.616L383.902 439.168ZM398.974 428.896L386.878 382.048H397.15L408.766 428.896H398.974ZM457.801 436.192L458.761 428.32C463.817 429.408 467.849 429.312 470.857 428.032C473.865 426.752 476.009 424.416 477.289 421.024C478.633 417.568 479.241 413.152 479.113 407.776C479.049 403.232 478.473 399.648 477.385 397.024C476.361 394.336 474.921 392.416 473.065 391.264C471.273 390.112 469.129 389.536 466.633 389.536C464.393 389.536 462.473 390.016 460.873 390.976C459.273 391.872 457.993 393.12 457.033 394.72C456.073 396.32 455.401 398.112 455.017 400.096L452.425 395.296C453.641 390.432 455.721 386.912 458.665 384.736C461.673 382.496 464.969 381.376 468.553 381.376C471.561 381.376 474.281 381.888 476.713 382.912C479.209 383.872 481.353 385.408 483.145 387.52C484.937 389.632 486.313 392.384 487.273 395.776C488.297 399.104 488.841 403.104 488.905 407.776C489.033 415.008 487.881 420.992 485.449 425.728C483.017 430.464 479.465 433.76 474.793 435.616C470.121 437.472 464.457 437.664 457.801 436.192ZM438.601 436L445.513 398.848L438.025 382.048H448.585L455.209 399.232L448.873 436H438.601Z" fill="black"/>
<circle cx="251" cy="128" r="120" stroke="#0F172A" strokeWidth="16"/>
<circle cx="225" cy="128" r="26" fill="#111827"/>
<circle cx="524" cy="128" r="120" stroke="#0F172A" strokeWidth="16"/>
<circle cx="498" cy="128" r="26" fill="#111827"/>
<line x1="371" y1="119.5" x2="408" y2="119.5" stroke="black" strokeWidth="17"/>
<line x1="645" y1="120" x2="675" y2="120" stroke="black" strokeWidth="16"/>
<line x1="100" y1="120" x2="130" y2="120" stroke="black" strokeWidth="16"/>
<path d="M351.399 234.32L376.405 209.314C382.654 203.065 392.756 203.093 398.97 209.376L423.837 234.522L387.516 270.842L351.399 234.32Z" fill="#F59E0B"/>
<path d="M387.417 298L423.286 234.622H351.549L387.417 298Z" fill="#F59E0B"/>
</svg>
